<?xml version="1.0" encoding="utf-8"?><svg xmlns="http://www.w3.org/2000/svg" xmlns:xlink="http://www.w3.org/1999/xlink"><symbol viewBox="0 0 390.88 391.07" id="basketball" xmlns="http://www.w3.org/2000/svg"><g data-name="Слой 2"><g data-name="Layer 1"><path d="M211.36 31.59c4.42-5.86 3.71-18.3 3.08-29.27 0-.47-.05-.93-.08-1.4-6.2-.59-12.47-.92-18.83-.92a195 195 0 0 0-69.12 12.61 454.75 454.75 0 0 1 65.45 38.8c9-7.75 15.79-14.9 19.5-19.82zm99.07 111.57a130.39 130.39 0 0 0-24.72 4.89c33.24 58 46.19 131.32 49.36 184.42a194.84 194.84 0 0 0 55.81-129.11c-22.69-27.89-52.74-63.34-80.45-60.2zM112.89 93.09c23.34-4.86 45.28-16.61 62.77-29-36.49-25.13-66.92-38.17-73-40.65A196.26 196.26 0 0 0 16.92 116c22.91-9.14 47.71-13.78 72.08-18.3 7.88-1.47 16-3 23.89-4.61z"/><path d="M248 98.77c2.08 2.09 4.16 4.23 6.23 6.39a209.25 209.25 0 0 1 20.86 26c9.23-3.48 20.1-6 33.1-7.43 30.65-3.46 57.9 20.81 81.29 47.54a194.75 194.75 0 0 0-48.25-106.11 277.36 277.36 0 0 0-45.94 9.39C284.75 77.69 268 86.24 248 98.77zm-25.69 100.98c8-27.16 17.31-46.75 35.31-59.46a182.64 182.64 0 0 0-17.52-21.64c-2.9-3.06-5.85-6-8.81-8.92C159.08 158.89 60.16 249.18 51.17 327.4a195.1 195.1 0 0 0 117.37 61.77c16.84-33.53 32.69-101.7 42.12-142.24 4.52-19.47 8.43-36.29 11.65-47.18z"/><path d="M140.44 156.68A695.41 695.41 0 0 1 216.52 96a421.166 421.166 0 0 0-24.22-19.85c-20.2 15.19-46.64 30.14-75.43 36.13-8.06 1.68-16.32 3.21-24.3 4.69C61.82 122.63 32.3 128.16 7.48 142a195.33 195.33 0 0 0 27.59 165.22c14.3-56.64 63.37-111.85 105.37-150.54zm92.92-71.9c23.27-14.83 43.32-25.08 56.34-29a287.85 287.85 0 0 1 34-7.88 194.83 194.83 0 0 0-89.6-44.08c.76 13.66 1.08 28.65-7.13 39.55a152.56 152.56 0 0 1-19.1 20c8.42 6.55 17 13.69 25.49 21.45zm7.7 120.51c-3.05 10.34-6.9 26.9-11.36 46.07C216.55 308 204 358.61 189.26 390.91c2.08.07 4.17.16 6.27.16a194.59 194.59 0 0 0 120.71-41.77c-1.31-55.56-14.63-134.16-48.19-192.51-13 9.68-20 24.89-27 48.5z"/></g></g></symbol><symbol viewBox="0 0 82.73 87.39" id="check" xmlns="http://www.w3.org/2000/svg"><g data-name="Слой 2"><path stroke-miterlimit="10" stroke-width="10" d="M67.15 5L31.71 67.53 17.52 48.67h-7.5L32.3 78.31 74.12 5h-6.97z" data-name="Layer 1"/></g></symbol><symbol viewBox="0 0 370.98 479.82" id="chess" xmlns="http://www.w3.org/2000/svg"><g data-name="Слой 2"><path d="M362.85 150.49c-39.51-31-78.42-62-117.78-93.06C228 44.3 219.7 27.62 223.17 6c.59-5.36-2.4-7.17-8.3-5.36-13.57 4.19-24.78 11.98-31.27 24.52-8.89 17.9-23 24.48-40.75 23.89-26.58-1.22-43.06 13.15-57.22 33.48-15.41 21.58-23 46.65-28.87 71.75-6.49 26.91-9.51 53.85-10.58 81.24-1.21 21-.59 41.28-1.21 62.12v58H305.8v-41.9s2.1-17.64-10.94-30.56-26.88-25-26.88-25a114.22 114.22 0 0 1-18-18.46l-48.1-62.24c3 2.43 5.9 4.74 8.89 7.17 14.8 11.35 30.68 16.07 48.94 11.35 10.58-2.43 21.28-1.21 30.67 4.75a179.63 179.63 0 0 0 16.9 9.54 33 33 0 0 0 40.48-8c6.08-7.29 12.15-14.58 18.23-21.76a20.79 20.79 0 0 0-3.14-30.04zM318.3 392.65a16 16 0 0 0-14.3-8.83H48a16 16 0 0 0-14.31 8.83l-32 64A16 16 0 0 0 16 479.82h320a16.1 16.1 0 0 0 13.63-7.59 15.92 15.92 0 0 0 .67-15.55z" data-name="Capa 1"/></g></symbol><symbol viewBox="0 0 37.57 63.82" id="chevron-left" xmlns="http://www.w3.org/2000/svg"><g data-name="Слой 2"><path stroke-miterlimit="10" stroke-width="8" d="M34.74 60.99L5.66 31.91 34.74 2.83" data-name="Layer 1"/></g></symbol><symbol viewBox="0 0 512 426.87" id="envilope" xmlns="http://www.w3.org/2000/svg"><defs><style>.ecls-1{fill:#81bcb8}</style></defs><g id="eСлой_2" data-name="Слой 2"><g id="eLayer_1" data-name="Layer 1"><path class="ecls-1" d="M256 186.72L498.57 32.25A75 75 0 0 0 437 0H75a75 75 0 0 0-61.57 32.25z"/><path class="ecls-1" d="M264.06 217.16a15.05 15.05 0 0 1-16.12 0L1.47 60.2A75.19 75.19 0 0 0 0 75v276.87a75.08 75.08 0 0 0 75 75h362a75.09 75.09 0 0 0 75-75V75a75.19 75.19 0 0 0-1.47-14.8z"/></g></g></symbol><symbol viewBox="0 0 72 72" id="fb" xmlns="http://www.w3.org/2000/svg"><g data-name="Слой 2"><path d="M72 12A12.44 12.44 0 0 0 60 0H12A12.44 12.44 0 0 0 0 12v48a12.43 12.43 0 0 0 12 12h24V44.8h-8.8v-12H36v-4.67c0-8.07 6-15.33 13.5-15.33h9.7v12h-9.7c-1.06 0-2.3 1.29-2.3 3.22v4.78h12v12h-12V72H60a12.43 12.43 0 0 0 12-12z" data-name="Layer 1"/></g></symbol><symbol viewBox="0 0 36.52 49.49" id="fitness" xmlns="http://www.w3.org/2000/svg"><defs><style>.gcls-3{fill:#0e0f0f}</style><clipPath id="gclip-path"><path d="M0 0h36.96v50H0z"/></clipPath></defs><g id="gСлой_2" data-name="Слой 2"><g id="gLayer_1" data-name="Layer 1"><g clip-path="url(#gclip-path)"><path class="gcls-3" d="M33.6 0c-7.94.7-13.79 4.66-17.2 10.38C14.11 13.26 9.54 22 7.88 26.6a129.49 129.49 0 0 0-7.7 18.59c-1.25 3.74 4.39 6.17 5.65 2.42a151.29 151.29 0 0 1 5.49-14.11c2.09 4.67 4.21 9.32 6.48 13.89 1.76 3.55 7.06.43 5.31-3.1-2.34-4.71-4.52-9.49-6.66-14.29l.09-.28a2.48 2.48 0 0 0 1.19.05l9.83-1.84a2.48 2.48 0 0 0 1.71-3c-.66-3.68-2.75-6.24-5.36-8.66-.39-1.32-1.68-2.48-3.11-3.64 2.9-4.7 7.65-7.25 13.82-7.79 3.15-.28 2.1-5.08-1-4.81zM21.66 20.91a11.52 11.52 0 0 1 2 2.76l-4.76.89a27.38 27.38 0 0 1 2.74-3.65z"/></g><path class="gcls-3" d="M32.66 12.51a4.22 4.22 0 1 1-4.22-4.22 4.22 4.22 0 0 1 4.22 4.22z"/></g></g></symbol><symbol viewBox="0 0 480 480" id="football" xmlns="http://www.w3.org/2000/svg"><g data-name="Слой 2"><path d="M240 0C107.45 0 0 107.45 0 240s107.45 240 240 240 240-107.45 240-240S372.48.15 240 0zm8.57 69.19L332 35.84a223.92 223.92 0 0 1 27.41 14.78l.22.13a224.57 224.57 0 0 1 24.7 18.11l.67.59q5.25 4.47 10.22 9.26c.42.41.86.8 1.28 1.22q5.21 5.08 10.09 10.48c.26.31.52.63.79.93 2.86 3.2 5.6 6.51 8.27 9.88.64.8 1.28 1.6 1.9 2.4 2.89 3.75 5.69 7.56 8.33 11.48l-16.63 70.71-81.84 27.28L248.59 150zM62.44 103.67c.62-.8 1.25-1.6 1.9-2.4q3.94-5 8.16-9.77c.31-.34.59-.68.89-1q4.85-5.4 10-10.48c.4-.39.8-.8 1.22-1.16q4.92-4.75 10.13-9.21l.8-.67a228.63 228.63 0 0 1 24.46-18l.32-.2A224.49 224.49 0 0 1 147.62 36l83.81 33.19V150l-78.83 63.05-81.83-27.23-16.63-70.7c2.66-3.92 5.43-7.72 8.3-11.45zM52.8 362.76q-3.52-5.37-6.75-11l-.52-.9q-3.2-5.55-6.05-11.29l-.07-.12a225.21 225.21 0 0 1-10.53-24.8v-.08c-1.42-4-2.72-8.1-3.92-12.22l-.43-1.52q-1.65-5.81-3-11.74c-.08-.39-.17-.76-.25-1.14a221.28 221.28 0 0 1-4.23-27.1l48.84-58.6 81.27 27.09 23.58 94.33-38.74 51.6zm240.47 94.78c-4 1-8.1 1.85-12.21 2.62l-1.73.31q-5.25.94-10.58 1.6l-2.82.36c-3.29.39-6.61.67-9.94.91-1 .07-2.08.18-3.13.25-4.25.26-8.54.41-12.86.41q-5.94 0-11.8-.31c-.47 0-.93-.08-1.4-.12q-5.22-.3-10.4-.79l-.4-.08a226.25 226.25 0 0 1-22.56-3.6L146.12 385l38.15-50.87h111.46l38.77 51.2zM458.77 288c-.08.38-.18.75-.26 1.14q-1.33 5.92-3 11.74l-.43 1.52c-1.21 4.12-2.5 8.2-3.92 12.22v.07a222.72 222.72 0 0 1-10.54 24.81l-.07.12q-2.86 5.73-6.05 11.29l-.52.9q-3.19 5.6-6.73 10.94l-78.91 12.45-39-51.52 23.58-94.31 81.26-27.09L463 260.89a223.66 223.66 0 0 1-4.23 27.11z" data-name="Layer 1"/></g></symbol><symbol viewBox="0 0 502.41 511" id="hockey" xmlns="http://www.w3.org/2000/svg"><defs><clipPath id="ia" transform="translate(-.98)"><path d="M0 0h504v511H0z"/></clipPath></defs><g data-name="Слой 2"><g data-name="Layer 1"><g clip-path="url(#ia)"><path d="M272.75 94l1.13 1.39h28.5a9.47 9.47 0 0 0 9.45-9.39c0-5.28 3.46-7.88 8.66-7.88h46.33a15.33 15.33 0 0 0 4-.52 21.25 21.25 0 0 0 14.2-24.35c-6.07-19.31-21.75-44.59-62.63-44.59-64.79 0-79.17 49.52-50.76 84.07a12.75 12.75 0 0 0 1.12 1.3zm114.59 322.23L245.52 273.46l-9.74-9.81-.08-.07c-.17.17-.29.38-.47.55a28.34 28.34 0 0 1-21.2 7.55l174.37 196a26 26 0 0 0 24.25 8.32l62.13-11.72a30.19 30.19 0 0 0 27.6-31.41 21.49 21.49 0 0 0-24.84-21.94c-1.23.18-2.51.4-3.87.66l-63.11 11.89a26 26 0 0 1-23.22-7.22zm-166.8 90.11a28.41 28.41 0 0 0 40.18-9.53l8.75-14.55L218.89 457a1.61 1.61 0 0 1-.52-.34l-6.06 10.31a29.44 29.44 0 0 0 8.23 39.41zm-176.26-.18l13.6-8.66-32.31-46.25c-.08-.09-.17-.26-.26-.35L12.58 459a28.43 28.43 0 1 0 31.7 47.2z"/></g><path d="M72.52 488.15a312.26 312.26 0 0 0 92.06-90l5.64-8.57a18.85 18.85 0 0 1 15.67-8.41h77.13l-35.77 60.55L277.79 467a4.48 4.48 0 0 1 .6.35l34.82-58.11-36.12-40.63-96.57-108.51a293.65 293.65 0 0 1-24.25 45.12l-48 72.93a192.32 192.32 0 0 1-57.25 56.47l-11.08 7 32.39 46.25c.09.09.09.17.18.26zm63.05-358.23a47.44 47.44 0 0 0-2.25 67l43.91 46.86 40.19-40.19-12-12.38a7.83 7.83 0 0 1-1.22-1.65l-20.09-21.57 37.42-5.19-6.15 14.54a8.53 8.53 0 0 1 2.51 1.83l36 37.24c10.39 11 10.3 30 3.81 44.86l22.95 23.13 16.89-27.63.95 19.92a137 137 0 0 0 4.53 30.09l63.32 63.75 24.34-17a2.22 2.22 0 0 1 .6-.34l-20.1-34.65a125 125 0 0 1-16.28-56.29l-2.94-67.83a47.57 47.57 0 0 0-21.94-37.82l-32.54-20.71a56.4 56.4 0 0 0 28.47 7.71A53.15 53.15 0 0 0 379.13 93c-1.13.44-2.34.87-3.56 1.21a31.93 31.93 0 0 1-8.75 1.22h-39.4a26.86 26.86 0 0 1-25 17.32h-26.4a52.35 52.35 0 0 0 18.19 21l-31.87-20.27a46.79 46.79 0 0 0-34.3-6.5l-76.22 14.56a32.54 32.54 0 0 0-16.28 8.31zm264.08 274.13a7.54 7.54 0 0 0 1.65 1.21 28.33 28.33 0 0 0 2.08-31.26l-3.36-5.9-21.33 14.9z"/><path d="M235.86 239.22l8.23 8.32a21.72 21.72 0 0 0-2.68-19.23l-12-12.39L192.39 253l22.86 1.38a11.43 11.43 0 0 0 7.63-2.42zM121.28 17.32h95.27a8.66 8.66 0 0 0 0-17.32h-95.27a8.66 8.66 0 0 0 0 17.32zM216.55 52a8.66 8.66 0 1 0 0-17.32h-43.3a8.66 8.66 0 1 0 0 17.32zM69.31 259.84h60.63a8.66 8.66 0 1 0 0-17.32H69.31a8.66 8.66 0 0 0 0 17.32zm60.63 17.32h-26a8.66 8.66 0 0 0 0 17.32h26a8.66 8.66 0 1 0 0-17.32z"/></g></g></symbol><symbol viewBox="0 0 41.13 39.82" id="home" xmlns="http://www.w3.org/2000/svg"><defs><clipPath id="ja"><path d="M0 0h42v40H0z"/></clipPath></defs><g data-name="Слой 2"><g clip-path="url(#ja)" data-name="Layer 1"><path d="M40.61 19.43a2 2 0 0 0-.16-2.81L22.07.54a2.29 2.29 0 0 0-3 0L.64 17.48a1.94 1.94 0 0 0-.09 2.8l.46.48a2 2 0 0 0 2.77.24l1.38-1.24v18.05a2 2 0 0 0 2 2h7.19a2 2 0 0 0 2-2V25.17h9.17v12.64a1.91 1.91 0 0 0 1.89 2H35a2 2 0 0 0 2-2V20l.86.74c.46.41 1.45.08 2.19-.74z"/></g></g></symbol><symbol viewBox="0 0 384 512" id="inner" xmlns="http://www.w3.org/2000/svg"><g data-name="Слой 2"><path d="M373.33 192h-32v-42.67C341.33 67 274.34 0 192 0S42.67 67 42.67 149.33V192h-32A10.66 10.66 0 0 0 0 202.67v266.66A42.72 42.72 0 0 0 42.67 512h298.66A42.72 42.72 0 0 0 384 469.33V202.67A10.66 10.66 0 0 0 373.33 192zM217.21 354.31l6.73 60.51a10.69 10.69 0 0 1-10.61 11.85h-42.66a10.69 10.69 0 0 1-10.61-11.85l6.73-60.51A42.19 42.19 0 0 1 149.33 320a42.67 42.67 0 1 1 85.34 0 42.19 42.19 0 0 1-17.46 34.31zM277.33 192H106.67v-42.67a85.33 85.33 0 1 1 170.66 0z" data-name="Capa 1"/></g></symbol><symbol viewBox="0 0 135.25 135.25" id="instagram" xmlns="http://www.w3.org/2000/svg"><g data-name="Слой 2"><g data-name="Layer 1"><path d="M97.93 0H37.32A37.36 37.36 0 0 0 0 37.32v60.61a37.36 37.36 0 0 0 37.32 37.32h60.61a37.37 37.37 0 0 0 37.32-37.32V37.32A37.36 37.36 0 0 0 97.93 0zm25.32 97.93a25.35 25.35 0 0 1-25.32 25.32H37.32A25.35 25.35 0 0 1 12 97.93V37.32A25.35 25.35 0 0 1 37.32 12h60.61a25.35 25.35 0 0 1 25.32 25.32z"/><path d="M67.62 32.78a34.85 34.85 0 1 0 34.86 34.85 34.89 34.89 0 0 0-34.86-34.85zm0 57.69a22.85 22.85 0 1 1 22.86-22.84 22.87 22.87 0 0 1-22.86 22.84zm36.32-67.87a8.81 8.81 0 1 0 6.22 2.58 8.83 8.83 0 0 0-6.22-2.58z"/></g></g></symbol><symbol viewBox="0 0 238.88 330.48" id="mark" xmlns="http://www.w3.org/2000/svg"><g data-name="Слой 2"><path d="M119.44 0A119.29 119.29 0 0 0 0 119.44c0 23 7.36 45 17.6 63.12l77.84 134.72c4.88 8.8 14.72 13.2 24 13.2a27.84 27.84 0 0 0 24-13.2l77.84-134.64c10.32-18.08 17.6-39.68 17.6-63.12A119.36 119.36 0 0 0 119.44 0zm0 154.72a43.6 43.6 0 1 1 43.6-43.6 43.7 43.7 0 0 1-43.6 43.6z" data-name="Layer 1"/></g></symbol><symbol viewBox="0 0 45.28 45.18" id="tel" xmlns="http://www.w3.org/2000/svg"><defs><clipPath id="na"><path d="M0 0h45.84v46H0z"/></clipPath></defs><g data-name="Слой 2"><g clip-path="url(#na)" data-name="Layer 1"><path d="M44.27 35.74l-7-7a3.64 3.64 0 0 0-5.14.1l-3.53 3.52-.68-.36a35.48 35.48 0 0 1-8.48-6.13 35.52 35.52 0 0 1-6.14-8.5l-.38-.67 2.37-2.36 1.16-1.17A3.64 3.64 0 0 0 16.54 8l-7-7a3.64 3.64 0 0 0-5.14.09l-2 2 .05.06A11.28 11.28 0 0 0 .87 6a11.94 11.94 0 0 0-.73 2.92c-.92 7.65 2.58 14.65 12.07 24.15 13.13 13.12 23.7 12.13 24.16 12.08a12.25 12.25 0 0 0 2.92-.73 11.57 11.57 0 0 0 2.85-1.62l2-2a3.64 3.64 0 0 0 .09-5.14z"/></g></g></symbol><symbol viewBox="0 0 125.18 71.43" id="vk" xmlns="http://www.w3.org/2000/svg"><defs><clipPath id="oa"><path d="M0 0h126v72H0z"/></clipPath></defs><g data-name="Слой 2"><g clip-path="url(#oa)" data-name="Layer 1"><path d="M124.52 64.51a8.69 8.69 0 0 0-.42-.82q-3.25-5.86-12.45-14.4l-.13-.14-.07-.06-.06-.06h-.07q-4.17-4-5.28-5.35a5 5 0 0 1-.91-5.28q.78-2 5.87-8.54 2.67-3.45 4.23-5.54 11.28-15 9.78-19.16l-.39-.65a3.76 3.76 0 0 0-2-1.07 10.11 10.11 0 0 0-4.17-.17l-18.79.13a2.46 2.46 0 0 0-1.31 0l-.85.19-.32.17-.26.24a2.93 2.93 0 0 0-.72.68 4.84 4.84 0 0 0-.65 1.14 105.75 105.75 0 0 1-7 14.67q-2.42 4-4.44 7a33.43 33.43 0 0 1-3.38 4.36 23.14 23.14 0 0 1-2.48 2.25c-.74.57-1.3.8-1.69.72l-1.11-.26A4.37 4.37 0 0 1 74 33a7.12 7.12 0 0 1-.75-2.54c-.13-1-.21-1.9-.23-2.64s0-1.79 0-3.13.06-2.26.06-2.74c0-1.65 0-3.44.1-5.38s.12-3.46.16-4.59.07-2.32.07-3.59a15.19 15.19 0 0 0-.23-3 9.85 9.85 0 0 0-.69-2.09 3.51 3.51 0 0 0-1.33-1.56A7.69 7.69 0 0 0 69 .86 44 44 0 0 0 60.23 0Q48.11-.12 44.65 1.58a8.66 8.66 0 0 0-2.48 1.95c-.78 1-.89 1.48-.33 1.57q3.91.59 5.55 2.8l.39.78a12.36 12.36 0 0 1 .91 3 29.94 29.94 0 0 1 .58 4.76 49.93 49.93 0 0 1 0 8.14c-.21 2.26-.42 4-.61 5.28a10.86 10.86 0 0 1-.88 3.07 12 12 0 0 1-.78 1.43 1.43 1.43 0 0 1-.32.33 5 5 0 0 1-1.76.32 4.12 4.12 0 0 1-2.22-.91 15.66 15.66 0 0 1-2.7-2.51 32.8 32.8 0 0 1-3.17-4.47c-1.17-1.91-2.38-4.16-3.64-6.77l-1-1.89q-1-1.83-2.67-5.32t-3-6.74a4.31 4.31 0 0 0-1.62-2.09l-.33-.19a4.32 4.32 0 0 0-1-.56A7 7 0 0 0 22 3.14l-17.83.13c-1.82 0-3.06.41-3.71 1.24l-.27.39a2.23 2.23 0 0 0-.19 1 5.18 5.18 0 0 0 .39 1.8q3.92 9.2 8.51 17.73t8 13.75q3.37 5.22 6.89 9.82c2.35 3.09 3.9 5.06 4.66 5.94s1.36 1.51 1.79 1.95l1.63 1.56a37.41 37.41 0 0 0 4.6 3.75 79.65 79.65 0 0 0 6.71 4.31A36.5 36.5 0 0 0 51.75 70a29.47 29.47 0 0 0 9.52 1.07h7.5a5.21 5.21 0 0 0 3.45-1.43l.26-.32a4.37 4.37 0 0 0 .52-1.23 6.31 6.31 0 0 0 .23-1.79 21.51 21.51 0 0 1 .43-5.06 12.88 12.88 0 0 1 1.11-3.38 7.93 7.93 0 0 1 1.4-1.92 5.38 5.38 0 0 1 1.07-.94 4 4 0 0 1 .52-.23c1-.35 2.27 0 3.68 1a22 22 0 0 1 4 3.78 89.4 89.4 0 0 0 4.46 5 31.3 31.3 0 0 0 4.56 4.18l1.31.78A15.76 15.76 0 0 0 99.14 71a7.22 7.22 0 0 0 3.65.33l16.68-.26a7.6 7.6 0 0 0 3.85-.82 3.19 3.19 0 0 0 1.62-1.79 5 5 0 0 0 0-2.22 8.5 8.5 0 0 0-.46-1.72z"/></g></g></symbol><symbol viewBox="0 0 512.03 511.97" id="volleyball" xmlns="http://www.w3.org/2000/svg"><g data-name="Слой 2"><g data-name="Capa 1"><path d="M269.54 265.6C261 385.09 196.29 455.46 151.65 490A254.43 254.43 0 0 0 219 509.47l9.69-7.87C287.36 454 358.37 369.38 374.78 236c-32.67 2.4-68.03 11.3-105.24 29.6zM174 152.7c18.66 29.51 45.09 58.31 82.37 83.46 107-52.19 201.28-31.26 254-10.14a257.65 257.65 0 0 0-8.29-40.84l-13-8C442.82 148.67 321.57 91.26 174 152.7z"/><path d="M158.37 124.58c142.05-60.58 262.14-20.1 324.25 12.19C439.71 55.46 354.43 0 256.13 0a254.74 254.74 0 0 0-123.94 32.06l.13 1.16a288.3 288.3 0 0 0 26.05 91.36zm45.34 256.16c17.47-31.49 30.75-70.53 34-118.53-92.51-62.75-125.09-146.15-135-210.82a257 257 0 0 0-54.34 55.36l1.38 8.93C61.41 190.78 98 296.22 203.71 380.74z"/><path d="M186.56 407.94c-102.88-81-145.82-180.29-163-258.6A255.25 255.25 0 0 0 0 256.22C0 347.9 48.29 428.1 120.64 473.38l3.07-2.21a281.39 281.39 0 0 0 62.85-63.23zm321.15-148.29a284.26 284.26 0 0 0-100.61-24.1C391.9 369.63 325.66 458.14 265.38 512 400.74 507.14 509.22 397.47 512 261.54z"/></g></g></symbol><symbol viewBox="0 0 512 512" id="whatsapp" xmlns="http://www.w3.org/2000/svg"><g data-name="Слой 2"><path d="M256.06 0h-.12C114.78 0 0 114.82 0 256a254.11 254.11 0 0 0 48.74 150.05l-31.91 95.1 98.4-31.45A253.83 253.83 0 0 0 256.06 512C397.22 512 512 397.15 512 256S397.22 0 256.06 0zM405 361.5c-6.17 17.44-30.68 31.91-50.24 36.13-13.37 2.85-30.84 5.12-89.66-19.26-75.21-31.17-123.66-107.62-127.44-112.58-3.61-5-30.4-40.48-30.4-77.21s18.66-54.63 26.18-62.31c6.18-6.3 16.38-9.18 26.18-9.18 3.16 0 6 .16 8.57.29 7.52.32 11.3.76 16.26 12.64 6.17 14.88 21.21 51.61 23 55.39s3.64 8.89 1.08 13.85c-2.4 5.12-4.51 7.4-8.28 11.75s-7.36 7.68-11.14 12.35c-3.46 4.06-7.36 8.42-3 15.94 4.35 7.36 19.39 31.9 41.54 51.61 28.57 25.44 51.74 33.57 60 37 6.18 2.56 13.54 1.95 18.05-2.85 5.73-6.18 12.8-16.42 20-26.5 5.12-7.23 11.58-8.13 18.37-5.57 6.91 2.4 43.48 20.48 51 24.23s12.48 5.57 14.31 8.73S411.2 344 405 361.5z" data-name="Capa 1"/></g></symbol></svg>