<svg xmlns="http://www.w3.org/2000/svg" viewBox="0 0 390.88 391.07"><title>basketball</title><g id="Слой_2" data-name="Слой 2"><g id="Layer_1" data-name="Layer 1"><path d="M211.36,31.59c4.42-5.86,3.71-18.3,3.08-29.27,0-.47-.05-.93-.08-1.4C208.16.33,201.89,0,195.53,0a195,195,0,0,0-69.12,12.61,454.75,454.75,0,0,1,65.45,38.8c9-7.75,15.79-14.9,19.5-19.82Z"/><path d="M310.43,143.16a130.39,130.39,0,0,0-24.72,4.89c33.24,58,46.19,131.32,49.36,184.42a194.84,194.84,0,0,0,55.81-129.11c-22.69-27.89-52.74-63.34-80.45-60.2Z"/><path d="M112.89,93.09c23.34-4.86,45.28-16.61,62.77-29-36.49-25.13-66.92-38.17-73-40.65A196.26,196.26,0,0,0,16.92,116C39.83,106.86,64.63,102.22,89,97.7c7.88-1.47,16-3,23.89-4.61Z"/><path d="M248,98.77c2.08,2.09,4.16,4.23,6.23,6.39a209.25,209.25,0,0,1,20.86,26c9.23-3.48,20.1-6,33.1-7.43,30.65-3.46,57.9,20.81,81.29,47.54A194.75,194.75,0,0,0,341.23,65.16a277.36,277.36,0,0,0-45.94,9.39C284.75,77.69,268,86.24,248,98.77Z"/><path d="M222.31,199.75c8-27.16,17.31-46.75,35.31-59.46a182.64,182.64,0,0,0-17.52-21.64c-2.9-3.06-5.85-6-8.81-8.92C159.08,158.89,60.16,249.18,51.17,327.4a195.1,195.1,0,0,0,117.37,61.77c16.84-33.53,32.69-101.7,42.12-142.24,4.52-19.47,8.43-36.29,11.65-47.18Z"/><path d="M140.44,156.68A695.41,695.41,0,0,1,216.52,96c-8.11-7.17-16.24-13.79-24.22-19.85-20.2,15.19-46.64,30.14-75.43,36.13-8.06,1.68-16.32,3.21-24.3,4.69C61.82,122.63,32.3,128.16,7.48,142A195.33,195.33,0,0,0,35.07,307.22c14.3-56.64,63.37-111.85,105.37-150.54Z"/><path d="M233.36,84.78c23.27-14.83,43.32-25.08,56.34-29a287.85,287.85,0,0,1,34-7.88A194.83,194.83,0,0,0,234.1,3.82c.76,13.66,1.08,28.65-7.13,39.55a152.56,152.56,0,0,1-19.1,20c8.42,6.55,17,13.69,25.49,21.45Z"/><path d="M241.06,205.29c-3.05,10.34-6.9,26.9-11.36,46.07C216.55,308,204,358.61,189.26,390.91c2.08.07,4.17.16,6.27.16A194.59,194.59,0,0,0,316.24,349.3c-1.31-55.56-14.63-134.16-48.19-192.51-13,9.68-20,24.89-27,48.5Z"/></g></g></svg>