<svg xmlns="http://www.w3.org/2000/svg" viewBox="0 0 370.98 479.82"><title>chairs</title><g id="Слой_2" data-name="Слой 2"><g id="Capa_1" data-name="Capa 1"><path d="M362.85,150.49c-39.51-31-78.42-62-117.78-93.06C228,44.3,219.7,27.62,223.17,6c.59-5.36-2.4-7.17-8.3-5.36C201.3,4.83,190.09,12.62,183.6,25.16c-8.89,17.9-23,24.48-40.75,23.89C116.27,47.83,99.79,62.2,85.63,82.53c-15.41,21.58-23,46.65-28.87,71.75-6.49,26.91-9.51,53.85-10.58,81.24-1.21,21-.59,41.28-1.21,62.12v58H305.8v-41.9s2.1-17.64-10.94-30.56-26.88-25-26.88-25a114.22,114.22,0,0,1-18-18.46l-48.1-62.24c3,2.43,5.9,4.74,8.89,7.17C225.57,196,241.45,200.72,259.71,196c10.58-2.43,21.28-1.21,30.67,4.75a179.63,179.63,0,0,0,16.9,9.54,33,33,0,0,0,40.48-8c6.08-7.29,12.15-14.58,18.23-21.76A20.79,20.79,0,0,0,362.85,150.49Z"/><path d="M318.3,392.65a16,16,0,0,0-14.3-8.83H48a16,16,0,0,0-14.31,8.83l-32,64A16,16,0,0,0,16,479.82H336a16.1,16.1,0,0,0,13.63-7.59,15.92,15.92,0,0,0,.67-15.55Z"/></g></g></svg>