<svg xmlns="http://www.w3.org/2000/svg" viewBox="0 0 512 426.87"><defs><style>.cls-1{fill:#81bcb8;}</style></defs><title>envilope</title><g id="Слой_2" data-name="Слой 2"><g id="Layer_1" data-name="Layer 1"><path class="cls-1" d="M256,186.72,498.57,32.25A75,75,0,0,0,437,0H75A75,75,0,0,0,13.43,32.25Z"/><path class="cls-1" d="M264.06,217.16a15.05,15.05,0,0,1-16.12,0L1.47,60.2A75.19,75.19,0,0,0,0,75V351.87a75.08,75.08,0,0,0,75,75H437a75.09,75.09,0,0,0,75-75V75a75.19,75.19,0,0,0-1.47-14.8Z"/></g></g></svg>