<svg xmlns="http://www.w3.org/2000/svg" xmlns:xlink="http://www.w3.org/1999/xlink" viewBox="0 0 36.52 49.49"><defs><style>.cls-1{fill:none;}.cls-2{clip-path:url(#clip-path);}.cls-3{fill:#0e0f0f;}</style><clipPath id="clip-path" transform="translate(0 0)"><rect class="cls-1" width="36.96" height="50"/></clipPath></defs><title>fitness</title><g id="Слой_2" data-name="Слой 2"><g id="Layer_1" data-name="Layer 1"><g class="cls-2"><path class="cls-3" d="M33.6,0c-7.94.7-13.79,4.66-17.2,10.38C14.11,13.26,9.54,22,7.88,26.6A129.49,129.49,0,0,0,.18,45.19c-1.25,3.74,4.39,6.17,5.65,2.42A151.29,151.29,0,0,1,11.32,33.5c2.09,4.67,4.21,9.32,6.48,13.89,1.76,3.55,7.06.43,5.31-3.1C20.77,39.58,18.59,34.8,16.45,30l.09-.28a2.48,2.48,0,0,0,1.19.05l9.83-1.84a2.48,2.48,0,0,0,1.71-3c-.66-3.68-2.75-6.24-5.36-8.66-.39-1.32-1.68-2.48-3.11-3.64,2.9-4.7,7.65-7.25,13.82-7.79,3.15-.28,2.1-5.08-1-4.81ZM21.66,20.91a11.52,11.52,0,0,1,2,2.76l-4.76.89a27.38,27.38,0,0,1,2.74-3.65Z" transform="translate(0 0)"/></g><path class="cls-3" d="M32.66,12.51a4.22,4.22,0,1,1-4.22-4.22,4.22,4.22,0,0,1,4.22,4.22Z" transform="translate(0 0)"/></g></g></svg>