<svg xmlns="http://www.w3.org/2000/svg" xmlns:xlink="http://www.w3.org/1999/xlink" viewBox="0 0 502.41 511"><defs><style>.cls-1{fill:none;}.cls-2{clip-path:url(#clip-path);}</style><clipPath id="clip-path" transform="translate(-0.98)"><rect class="cls-1" width="504" height="511"/></clipPath></defs><title>hokey</title><g id="Слой_2" data-name="Слой 2"><g id="Layer_1" data-name="Layer 1"><g class="cls-2"><path d="M273.73,94l1.13,1.39h28.5A9.47,9.47,0,0,0,312.81,86c0-5.28,3.46-7.88,8.66-7.88H367.8a15.33,15.33,0,0,0,4-.52A21.25,21.25,0,0,0,386,53.25c-6.07-19.31-21.75-44.59-62.63-44.59-64.79,0-79.17,49.52-50.76,84.07a12.75,12.75,0,0,0,1.12,1.3Z" transform="translate(-0.98)"/><path d="M388.32,416.23,246.5,273.46l-9.74-9.81-.08-.07c-.17.17-.29.38-.47.55a28.34,28.34,0,0,1-21.2,7.55l174.37,196A26,26,0,0,0,413.63,476l62.13-11.72a30.19,30.19,0,0,0,27.6-31.41,21.49,21.49,0,0,0-24.84-21.94c-1.23.18-2.51.4-3.87.66l-63.11,11.89a26,26,0,0,1-23.22-7.22Z" transform="translate(-0.98)"/><path d="M221.52,506.34a28.41,28.41,0,0,0,40.18-9.53l8.75-14.55L219.87,457a1.61,1.61,0,0,1-.52-.34l-6.06,10.31a29.44,29.44,0,0,0,8.23,39.41Z" transform="translate(-0.98)"/><path d="M45.26,506.16l13.6-8.66L26.55,451.25c-.08-.09-.17-.26-.26-.35L13.56,459a28.43,28.43,0,1,0,31.7,47.2Z" transform="translate(-0.98)"/></g><path d="M73.5,488.15a312.26,312.26,0,0,0,92.06-90l5.64-8.57a18.85,18.85,0,0,1,15.67-8.41H264l-35.77,60.55L278.77,467a4.48,4.48,0,0,1,.6.35l34.82-58.11-36.12-40.63L181.5,260.1a293.65,293.65,0,0,1-24.25,45.12l-48,72.93A192.32,192.32,0,0,1,52,434.62l-11.08,7,32.39,46.25c.09.09.09.17.18.26Z" transform="translate(-0.98)"/><path d="M136.55,129.92a47.44,47.44,0,0,0-2.25,67l43.91,46.86,40.19-40.19-12-12.38a7.83,7.83,0,0,1-1.22-1.65l-20.09-21.57,37.42-5.19-6.15,14.54a8.53,8.53,0,0,1,2.51,1.83l36,37.24c10.39,11,10.3,30,3.81,44.86l22.95,23.13,16.89-27.63.95,19.92A137,137,0,0,0,304,306.78l63.32,63.75,24.34-17a2.22,2.22,0,0,1,.6-.34l-20.1-34.65a125,125,0,0,1-16.28-56.29l-2.94-67.83A47.57,47.57,0,0,0,331,156.6l-32.54-20.71a56.4,56.4,0,0,0,28.47,7.71A53.15,53.15,0,0,0,380.11,93c-1.13.44-2.34.87-3.56,1.21a31.93,31.93,0,0,1-8.75,1.22H328.4a26.86,26.86,0,0,1-25,17.32H277a52.35,52.35,0,0,0,18.19,21l-31.87-20.27a46.79,46.79,0,0,0-34.3-6.5l-76.22,14.56a32.54,32.54,0,0,0-16.28,8.31Z" transform="translate(-0.98)"/><path d="M400.63,404.05a7.54,7.54,0,0,0,1.65,1.21A28.33,28.33,0,0,0,404.36,374L401,368.1,379.67,383Z" transform="translate(-0.98)"/><path d="M236.84,239.22l8.23,8.32a21.72,21.72,0,0,0-2.68-19.23l-12-12.39L193.37,253l22.86,1.38a11.43,11.43,0,0,0,7.63-2.42Z" transform="translate(-0.98)"/><path d="M122.26,17.32h95.27a8.66,8.66,0,0,0,0-17.32H122.26a8.66,8.66,0,0,0,0,17.32Z" transform="translate(-0.98)"/><path d="M217.53,52a8.66,8.66,0,1,0,0-17.32h-43.3a8.66,8.66,0,1,0,0,17.32Z" transform="translate(-0.98)"/><path d="M70.29,259.84h60.63a8.66,8.66,0,1,0,0-17.32H70.29a8.66,8.66,0,0,0,0,17.32Z" transform="translate(-0.98)"/><path d="M130.92,277.16h-26a8.66,8.66,0,0,0,0,17.32h26a8.66,8.66,0,1,0,0-17.32Z" transform="translate(-0.98)"/></g></g></svg>