<svg xmlns="http://www.w3.org/2000/svg" xmlns:xlink="http://www.w3.org/1999/xlink" viewBox="0 0 41.13 39.82"><defs><style>.cls-1{fill:none;}.cls-2{clip-path:url(#clip-path);}</style><clipPath id="clip-path" transform="translate(0 0)"><rect class="cls-1" width="42" height="40"/></clipPath></defs><title>home</title><g id="Слой_2" data-name="Слой 2"><g id="Layer_1" data-name="Layer 1"><g class="cls-2"><path d="M40.61,19.43a2,2,0,0,0-.16-2.81L22.07.54a2.29,2.29,0,0,0-3,0L.64,17.48a1.94,1.94,0,0,0-.09,2.8l.46.48A2,2,0,0,0,3.78,21l1.38-1.24V37.81a2,2,0,0,0,2,2h7.19a2,2,0,0,0,2-2V25.17h9.17V37.81a1.91,1.91,0,0,0,1.89,2H35a2,2,0,0,0,2-2V20l.86.74c.46.41,1.45.08,2.19-.74Z" transform="translate(0 0)"/></g></g></g></svg>