<svg xmlns="http://www.w3.org/2000/svg" viewBox="0 0 384 512"><title>inner</title><g id="Слой_2" data-name="Слой 2"><g id="Capa_1" data-name="Capa 1"><path d="M373.33,192h-32V149.33C341.33,67,274.34,0,192,0S42.67,67,42.67,149.33V192h-32A10.66,10.66,0,0,0,0,202.67V469.33A42.72,42.72,0,0,0,42.67,512H341.33A42.72,42.72,0,0,0,384,469.33V202.67A10.66,10.66,0,0,0,373.33,192ZM217.21,354.31l6.73,60.51a10.69,10.69,0,0,1-10.61,11.85H170.67a10.69,10.69,0,0,1-10.61-11.85l6.73-60.51A42.19,42.19,0,0,1,149.33,320a42.67,42.67,0,1,1,85.34,0A42.19,42.19,0,0,1,217.21,354.31ZM277.33,192H106.67V149.33a85.33,85.33,0,1,1,170.66,0Z"/></g></g></svg>