<svg xmlns="http://www.w3.org/2000/svg" viewBox="0 0 135.25 135.25"><title>instagram</title><g id="Слой_2" data-name="Слой 2"><g id="Layer_1" data-name="Layer 1"><path d="M97.93,0H37.32A37.36,37.36,0,0,0,0,37.32V97.93a37.36,37.36,0,0,0,37.32,37.32H97.93a37.37,37.37,0,0,0,37.32-37.32V37.32A37.36,37.36,0,0,0,97.93,0Zm25.32,97.93a25.35,25.35,0,0,1-25.32,25.32H37.32A25.35,25.35,0,0,1,12,97.93V37.32A25.35,25.35,0,0,1,37.32,12H97.93a25.35,25.35,0,0,1,25.32,25.32Z"/><path d="M67.62,32.78a34.85,34.85,0,1,0,34.86,34.85A34.89,34.89,0,0,0,67.62,32.78Zm0,57.69A22.85,22.85,0,1,1,90.48,67.63,22.87,22.87,0,0,1,67.62,90.47Z"/><path d="M103.94,22.6a8.81,8.81,0,1,0,6.22,2.58,8.83,8.83,0,0,0-6.22-2.58Z"/></g></g></svg>