<svg xmlns="http://www.w3.org/2000/svg" viewBox="0 0 238.88 330.48"><defs><style>.cls-1{fill:#81bdb9;}</style></defs><title>mark</title><g id="Слой_2" data-name="Слой 2"><g id="Layer_1" data-name="Layer 1"><path class="cls-1" d="M119.44,0h0A119.29,119.29,0,0,0,0,119.44c0,23,7.36,45,17.6,63.12L95.44,317.28c4.88,8.8,14.72,13.2,24,13.2a27.84,27.84,0,0,0,24-13.2l77.84-134.64c10.32-18.08,17.6-39.68,17.6-63.12A119.36,119.36,0,0,0,119.44,0Zm0,154.72a43.6,43.6,0,1,1,43.6-43.6,43.7,43.7,0,0,1-43.6,43.6Z"/></g></g></svg>