<svg xmlns="http://www.w3.org/2000/svg" xmlns:xlink="http://www.w3.org/1999/xlink" viewBox="0 0 45.28 45.18"><defs><style>.cls-1{fill:none;}.cls-2{clip-path:url(#clip-path);}.cls-3{fill:#020202;}</style><clipPath id="clip-path" transform="translate(0 0)"><rect class="cls-1" width="45.84" height="46"/></clipPath></defs><title>tel</title><g id="Слой_2" data-name="Слой 2"><g id="Layer_1" data-name="Layer 1"><g class="cls-2"><path class="cls-3" d="M44.27,35.74l-7-7a3.64,3.64,0,0,0-5.14.1l-3.53,3.52L27.92,32a35.48,35.48,0,0,1-8.48-6.13,35.52,35.52,0,0,1-6.14-8.5l-.38-.67,2.37-2.36,1.16-1.17A3.64,3.64,0,0,0,16.54,8l-7-7a3.64,3.64,0,0,0-5.14.09l-2,2,.05.06A11.28,11.28,0,0,0,.87,6,11.94,11.94,0,0,0,.14,8.92c-.92,7.65,2.58,14.65,12.07,24.15C25.34,46.19,35.91,45.2,36.37,45.15a12.25,12.25,0,0,0,2.92-.73,11.57,11.57,0,0,0,2.85-1.62l0,0,2-2a3.64,3.64,0,0,0,.09-5.14Z" transform="translate(0 0)"/></g></g></g></svg>