<svg xmlns="http://www.w3.org/2000/svg" viewBox="0 0 512.03 511.97"><title>valleball</title><g id="Слой_2" data-name="Слой 2"><g id="Capa_1" data-name="Capa 1"><path d="M269.54,265.6C261,385.09,196.29,455.46,151.65,490A254.43,254.43,0,0,0,219,509.47l9.69-7.87C287.36,454,358.37,369.38,374.78,236,342.11,238.4,306.75,247.3,269.54,265.6Z"/><path d="M174,152.7c18.66,29.51,45.09,58.31,82.37,83.46,107-52.19,201.28-31.26,254-10.14a257.65,257.65,0,0,0-8.29-40.84l-13-8C442.82,148.67,321.57,91.26,174,152.7Z"/><path d="M158.37,124.58C300.42,64,420.51,104.48,482.62,136.77,439.71,55.46,354.43,0,256.13,0A254.74,254.74,0,0,0,132.19,32.06l.13,1.16A288.3,288.3,0,0,0,158.37,124.58Z"/><path d="M203.71,380.74c17.47-31.49,30.75-70.53,34-118.53-92.51-62.75-125.09-146.15-135-210.82a257,257,0,0,0-54.34,55.36l1.38,8.93C61.41,190.78,98,296.22,203.71,380.74Z"/><path d="M186.56,407.94c-102.88-81-145.82-180.29-163-258.6A255.25,255.25,0,0,0,0,256.22C0,347.9,48.29,428.1,120.64,473.38l3.07-2.21A281.39,281.39,0,0,0,186.56,407.94Z"/><path d="M507.71,259.65a284.26,284.26,0,0,0-100.61-24.1C391.9,369.63,325.66,458.14,265.38,512,400.74,507.14,509.22,397.47,512,261.54Z"/></g></g></svg>