<svg xmlns="http://www.w3.org/2000/svg" xmlns:xlink="http://www.w3.org/1999/xlink" viewBox="0 0 125.18 71.43"><defs><style>.cls-1{fill:none;}.cls-2{clip-path:url(#clip-path);}</style><clipPath id="clip-path"><rect class="cls-1" width="126" height="72"/></clipPath></defs><title>vk</title><g id="Слой_2" data-name="Слой 2"><g id="Layer_1" data-name="Layer 1"><g class="cls-2"><path d="M124.52,64.51a8.69,8.69,0,0,0-.42-.82q-3.25-5.86-12.45-14.4l-.13-.14-.07-.06-.06-.06h-.07q-4.17-4-5.28-5.35a5,5,0,0,1-.91-5.28q.78-2,5.87-8.54,2.67-3.45,4.23-5.54,11.28-15,9.78-19.16l-.39-.65a3.76,3.76,0,0,0-2-1.07,10.11,10.11,0,0,0-4.17-.17L99.66,3.4a2.46,2.46,0,0,0-1.31,0l-.85.19-.32.17L96.92,4a2.93,2.93,0,0,0-.72.68,4.84,4.84,0,0,0-.65,1.14,105.75,105.75,0,0,1-7,14.67q-2.42,4-4.44,7a33.43,33.43,0,0,1-3.38,4.36,23.14,23.14,0,0,1-2.48,2.25c-.74.57-1.3.8-1.69.72l-1.11-.26A4.37,4.37,0,0,1,74,33a7.12,7.12,0,0,1-.75-2.54c-.13-1-.21-1.9-.23-2.64s0-1.79,0-3.13.06-2.26.06-2.74c0-1.65,0-3.44.1-5.38s.12-3.46.16-4.59.07-2.32.07-3.59a15.19,15.19,0,0,0-.23-3,9.85,9.85,0,0,0-.69-2.09,3.51,3.51,0,0,0-1.33-1.56A7.69,7.69,0,0,0,69,.86,44,44,0,0,0,60.23,0Q48.11-.12,44.65,1.58a8.66,8.66,0,0,0-2.48,1.95c-.78,1-.89,1.48-.33,1.57q3.91.59,5.55,2.8l.39.78a12.36,12.36,0,0,1,.91,3,29.94,29.94,0,0,1,.58,4.76,49.93,49.93,0,0,1,0,8.14c-.21,2.26-.42,4-.61,5.28a10.86,10.86,0,0,1-.88,3.07A12,12,0,0,1,47,34.36a1.43,1.43,0,0,1-.32.33,5,5,0,0,1-1.76.32,4.12,4.12,0,0,1-2.22-.91A15.66,15.66,0,0,1,40,31.59a32.8,32.8,0,0,1-3.17-4.47c-1.17-1.91-2.38-4.16-3.64-6.77l-1-1.89q-1-1.83-2.67-5.32t-3-6.74A4.31,4.31,0,0,0,24.9,4.31l-.33-.19a4.32,4.32,0,0,0-1-.56A7,7,0,0,0,22,3.14L4.17,3.27c-1.82,0-3.06.41-3.71,1.24L.19,4.9a2.23,2.23,0,0,0-.19,1A5.18,5.18,0,0,0,.39,7.7Q4.31,16.9,8.9,25.43t8,13.75Q20.27,44.4,23.79,49c2.35,3.09,3.9,5.06,4.66,5.94s1.36,1.51,1.79,1.95l1.63,1.56a37.41,37.41,0,0,0,4.6,3.75,79.65,79.65,0,0,0,6.71,4.31A36.5,36.5,0,0,0,51.75,70a29.47,29.47,0,0,0,9.52,1.07h7.5a5.21,5.21,0,0,0,3.45-1.43l.26-.32A4.37,4.37,0,0,0,73,68.09a6.31,6.31,0,0,0,.23-1.79,21.51,21.51,0,0,1,.43-5.06,12.88,12.88,0,0,1,1.11-3.38,7.93,7.93,0,0,1,1.4-1.92A5.38,5.38,0,0,1,77.24,55a4,4,0,0,1,.52-.23c1-.35,2.27,0,3.68,1a22,22,0,0,1,4,3.78c1.24,1.5,2.72,3.19,4.46,5a31.3,31.3,0,0,0,4.56,4.18l1.31.78A15.76,15.76,0,0,0,99.14,71a7.22,7.22,0,0,0,3.65.33l16.68-.26a7.6,7.6,0,0,0,3.85-.82,3.19,3.19,0,0,0,1.62-1.79,5,5,0,0,0,0-2.22,8.5,8.5,0,0,0-.46-1.72Z"/></g></g></g></svg>